<svg xmlns="http://www.w3.org/2000/svg" viewBox="-125.927 717.598 251.995 160.889">
  <defs>
    <style>
      .cls-1 {
        fill: #ffe700;
      }

      .cls-1, .cls-3 {
        stroke: #c11345;
      }

      .cls-1, .cls-2, .cls-3 {
        stroke-width: 10px;
      }

      .cls-2, .cls-3, .cls-6 {
        fill: none;
      }

      .cls-2 {
        stroke: #b30737;
      }

      .cls-4 {
        fill: #c11345;
      }

      .cls-5 {
        stroke: none;
      }
    </style>
  </defs>
  <g id="group-9" transform="translate(-802.927 549.5)">
    <path id="path-1" class="cls-1" d="M234.771,75.57a29.667,29.667,0,0,0-47.76-32.779,44.9,44.9,0,0,0-14.558-27.1A42.128,42.128,0,0,0,124.739,8.32a42.1,42.1,0,0,0-53.02,13.572,45.013,45.013,0,0,0-8.782,20.851,29.671,29.671,0,0,0-49.92,21.7,29.131,29.131,0,0,0,2.16,11.083,31.044,31.044,0,0,0,19.865,54.9,30.469,30.469,0,0,0,9.064-1.362,35.8,35.8,0,0,0,59.83,15.216,27.556,27.556,0,0,0,21.086,9.956h.047a27.46,27.46,0,0,0,21.039-9.956,35.764,35.764,0,0,0,59.783-15.216,30.468,30.468,0,0,0,9.063,1.362A30.986,30.986,0,0,0,234.771,75.57Z" transform="translate(678 169.098)"/>
    <path id="ellipse-3" class="cls-2" d="M57.422,135.883c0,8.875-12.183,16.069-27.211,16.069S3,144.758,3,135.883C3,135.373,57.422,135.282,57.422,135.883Z" transform="translate(772.738 151.682)"/>
    <g id="ellipse-1" class="cls-3" transform="translate(819.46 213.333)">
      <ellipse class="cls-5" cx="10.152" cy="13.993" rx="10.152" ry="13.993"/>
      <ellipse class="cls-6" cx="10.152" cy="13.993" rx="5.152" ry="8.993"/>
    </g>
    <g id="ellipse-1-2" data-name="ellipse-1" class="cls-3" transform="translate(768.975 213.333)">
      <ellipse class="cls-5" cx="10.152" cy="13.993" rx="10.152" ry="13.993"/>
      <ellipse class="cls-6" cx="10.152" cy="13.993" rx="5.152" ry="8.993"/>
    </g>
    <path id="path-2" class="cls-4" d="M106.389,4.822s3.9-8.047,13.29,0c0,0,7.743,12.193-7.742,23.288,0,0-19.691,10-50.966-9.389,0,0-34.628,23.837-57.063,3.9,0,0-11.339-16.034,4.694-21.277,0,0,5.243-.61,6.95,2.987,0,0-9.51-3.6-8.169,7.742,0,0,3.048,7.681,14.388.671,0,0,16.4-13.046,22.5-12.315,0,0,7.5-1.219,12.315,1.89,0,0,4.024,1.951,4.389,2.682,0,0,7.072-4.572,13.29-4.755,0,0,5.609-1.28,17.924,6.523,0,0,9.145,6.95,13.168,8.718,0,0,8.657,1.524,9.389-5.3C114.68,10.065,114.071.189,106.389,4.822Z" transform="translate(740.699 252.35)"/>
  </g>
</svg>
