<?xml version="1.0" encoding="utf-8"?>
<!-- Generator: Adobe Illustrator 21.1.0, SVG Export Plug-In . SVG Version: 6.00 Build 0)  -->
<svg version="1.1" id="Layer_1" xmlns="http://www.w3.org/2000/svg" xmlns:xlink="http://www.w3.org/1999/xlink" x="0px" y="0px"
	 viewBox="0 0 1476 877" style="enable-background:new 0 0 1476 877;" xml:space="preserve">
<style type="text/css">
	.st0{fill:#FFFFFF;}
	.st1{fill:#D3D3D3;}
	.st2{opacity:0.2;}
	.st3{fill:#BCBCBC;}
	.st4{font-family:'OpenSans-Light';}
	.st5{font-size:45.9068px;}
	.st6{fill:#070707;}
	.st7{fill:#5B0155;}
	.st8{fill:#FF4A0B;}
	.st9{fill:none;stroke:#FF4A0B;stroke-width:5;stroke-miterlimit:10;}
	.st10{fill:none;stroke:#000000;stroke-width:5;stroke-miterlimit:10;}
	.st11{fill:#FFFFFF;stroke:#5B0155;stroke-width:5;stroke-miterlimit:10;}
	.st12{fill:none;stroke:#5B0155;stroke-width:5;stroke-miterlimit:10;}
	.st13{fill:#FFFFFF;stroke:#30E9FF;stroke-width:5;stroke-miterlimit:10;}
	.st14{fill:none;stroke:#30E9FF;stroke-width:5;stroke-miterlimit:10;}
</style>
<g>
	<g>
		<rect x="1.5" y="1.5" class="st0" width="1473" height="174"/>
		<path class="st1" d="M1473,3v171H3V3H1473 M1476,0H0v177h1476V0L1476,0z"/>
	</g>
	<g>
		<g>
			<path class="st1" d="M208,180v134H3V180H208 M211,177H0v140h211V177L211,177z"/>
		</g>
		<g>
			<path class="st1" d="M419,180v134H214V180H419 M422,177H211v140h211V177L422,177z"/>
		</g>
		<g>
			<path class="st1" d="M629,180v134H424V180H629 M632,177H421v140h211V177L632,177z"/>
		</g>
		<g>
			<path class="st1" d="M840,180v134H635V180H840 M843,177H632v140h211V177L843,177z"/>
		</g>
		<g>
			<path class="st1" d="M1051,180v134H846V180H1051 M1054,177H843v140h211V177L1054,177z"/>
		</g>
		<g>
			<path class="st1" d="M1261,180v134h-205V180H1261 M1264,177h-211v140h211V177L1264,177z"/>
		</g>
		<g>
			<path class="st1" d="M1472,180v134h-205V180H1472 M1475,177h-211v140h211V177L1475,177z"/>
		</g>
		<g>
			<g>
				<path class="st1" d="M208,320v134H3V320H208 M211,317H0v140h211V317L211,317z"/>
			</g>
			<g>
				<path class="st1" d="M419,320v134H214V320H419 M422,317H211v140h211V317L422,317z"/>
			</g>
			<g>
				<path class="st1" d="M629,320v134H424V320H629 M632,317H421v140h211V317L632,317z"/>
			</g>
			<g>
				<path class="st1" d="M840,320v134H635V320H840 M843,317H632v140h211V317L843,317z"/>
			</g>
			<g>
				<path class="st1" d="M1051,320v134H846V320H1051 M1054,317H843v140h211V317L1054,317z"/>
			</g>
			<g>
				<path class="st1" d="M1261,320v134h-205V320H1261 M1264,317h-211v140h211V317L1264,317z"/>
			</g>
			<g>
				<path class="st1" d="M1472,320v134h-205V320H1472 M1475,317h-211v140h211V317L1475,317z"/>
			</g>
		</g>
		<g>
			<g>
				<path class="st1" d="M209,460v134H4V460H209 M212,457H1v140h211V457L212,457z"/>
			</g>
			<g>
				<path class="st1" d="M420,460v134H215V460H420 M423,457H212v140h211V457L423,457z"/>
			</g>
			<g>
				<path class="st1" d="M630,460v134H425V460H630 M633,457H422v140h211V457L633,457z"/>
			</g>
			<g>
				<path class="st1" d="M841,460v134H636V460H841 M844,457H633v140h211V457L844,457z"/>
			</g>
			<g>
				<path class="st1" d="M1052,460v134H847V460H1052 M1055,457H844v140h211V457L1055,457z"/>
			</g>
			<g>
				<path class="st1" d="M1262,460v134h-205V460H1262 M1265,457h-211v140h211V457L1265,457z"/>
			</g>
			<g>
				<path class="st1" d="M1473,460v134h-205V460H1473 M1476,457h-211v140h211V457L1476,457z"/>
			</g>
		</g>
		<g>
			<g>
				<path class="st1" d="M209,600v134H4V600H209 M212,597H1v140h211V597L212,597z"/>
			</g>
			<g>
				<path class="st1" d="M420,600v134H215V600H420 M423,597H212v140h211V597L423,597z"/>
			</g>
			<g>
				<path class="st1" d="M630,600v134H425V600H630 M633,597H422v140h211V597L633,597z"/>
			</g>
			<g>
				<path class="st1" d="M841,600v134H636V600H841 M844,597H633v140h211V597L844,597z"/>
			</g>
			<g>
				<path class="st1" d="M1052,600v134H847V600H1052 M1055,597H844v140h211V597L1055,597z"/>
			</g>
			<g>
				<path class="st1" d="M1262,600v134h-205V600H1262 M1265,597h-211v140h211V597L1265,597z"/>
			</g>
			<g>
				<path class="st1" d="M1473,600v134h-205V600H1473 M1476,597h-211v140h211V597L1476,597z"/>
			</g>
		</g>
		<g>
			<g>
				<path class="st1" d="M209,740v134H4V740H209 M212,737H1v140h211V737L212,737z"/>
			</g>
			<g>
				<path class="st1" d="M420,740v134H215V740H420 M423,737H212v140h211V737L423,737z"/>
			</g>
			<g>
				<path class="st1" d="M630,740v134H425V740H630 M633,737H422v140h211V737L633,737z"/>
			</g>
			<g>
				<path class="st1" d="M841,740v134H636V740H841 M844,737H633v140h211V737L844,737z"/>
			</g>
			<g>
				<path class="st1" d="M1052,740v134H847V740H1052 M1055,737H844v140h211V737L1055,737z"/>
			</g>
			<g>
				<path class="st1" d="M1262,740v134h-205V740H1262 M1265,737h-211v140h211V737L1265,737z"/>
			</g>
			<g>
				<path class="st1" d="M1473,740v134h-205V740H1473 M1476,737h-211v140h211V737L1476,737z"/>
			</g>
		</g>
	</g>
	<g>
		<path class="st1" d="M397,294h-2v-19.2c0.5-1.8,0.6-3.6,0.7-5.6c-0.2,0.2-0.4,0.4-0.6,0.5c-0.2,0.2-2.1,1.7-5.7,4.5l-1.1-1.3
			l7.3-5.9h1.3V294z"/>
	</g>
	<g class="st2">
		<path class="st1" d="M170.6,273.8c0,1.7-0.5,3.1-1.6,4.2c-1.1,1.1-4,2.2-4,2.2V280c2.3,0.3,4,1,5.2,2.1c1.2,1.1,1.8,2.6,1.8,4.5
			c0,2.5-0.9,4.5-2.7,5.9c-1.8,1.4-4.4,2.1-7.7,2.1c-2.9,0-5.4-0.5-7.5-1.5v-1.8c1.1,0.5,2.3,1,3.6,1.3c1.3,0.3,2.6,0.5,3.8,0.5
			c2.8,0,5-0.6,6.4-1.7s2.1-2.7,2.1-4.7c0-1.8-0.7-3.2-2.2-4.1c-1.5-1-3.6-1.4-6.4-1.4H159v-2h2.3c2.2,0.5,4,0,5.3-1.1
			c1.3-1.1,2-2.5,2-4.3c0-1.5-0.5-2.7-1.6-3.6s-2.5-1.4-4.2-1.4c-1.3,0-2.6,0.2-3.7,0.6s-2.4,1-3.7,1.9l-0.9-1.2
			c1-0.9,2.3-1.6,3.8-2.1c1.5-0.5,3-0.8,4.5-0.8c2.5,0,4.4,0.6,5.8,1.8C169.9,270,170.6,271.6,170.6,273.8z"/>
		<path class="st1" d="M193.7,280.9c0,4.8-0.7,8.3-2.2,10.6c-1.5,2.3-3.6,3.4-6.6,3.4c-2.8,0-5-1.2-6.4-3.5
			c-1.5-2.4-2.2-5.8-2.2-10.5c0-4.7,0.7-8.2,2.1-10.5c1.4-2.3,3.6-3.4,6.5-3.4c2.9,0,5,1.2,6.5,3.5S193.7,276.3,193.7,280.9z
			 M178.3,280.9c0,4.2,0.5,7.3,1.6,9.3c1.1,2,2.8,3,5,3c2.3,0,4-1,5.1-3.1c1.1-2.1,1.6-5.1,1.6-9.2c0-4-0.5-7-1.6-9.1
			c-1.1-2.1-2.8-3.1-5.1-3.1s-4,1-5.1,3.1S178.3,276.9,178.3,280.9z"/>
	</g>
	<g>
		<path class="st1" d="M614,295h-16v-2.1l6.5-7.5c2-2.1,3.4-3.7,4.3-4.8s1.4-2.2,1.8-3.2c0.4-1,0.6-2.1,0.6-3.2
			c0-1.6-0.5-2.9-1.6-3.9c-1.1-1-2.4-1.5-4.1-1.5c-2.3,0-4.4,0.8-6.5,2.5l-1-1.3c2.3-1.9,4.8-2.9,7.5-2.9c2.4,0,4.2,0.6,5.6,1.9
			c1.4,1.3,2,3,2,5.2c0,1.8-0.5,3.5-1.4,5.2s-2.6,3.7-5,6.2l-6.7,7.1v0.4h14V295z"/>
	</g>
	<g>
		<path class="st1" d="M823.9,273.8c0,1.7-0.5,3.1-1.6,4.2c-1.1,1.1-4.3,2.2-4.3,2.2V280c2.3,0.3,4,1,5.2,2.1
			c1.2,1.1,1.8,2.6,1.8,4.5c0,2.5-0.9,4.5-2.7,5.9s-4.4,2.1-7.7,2.1c-2.9,0-5.4-0.5-7.5-1.5v-1.8c1.1,0.5,2.3,1,3.6,1.3
			c1.3,0.3,2.6,0.5,3.8,0.5c2.8,0,5-0.6,6.4-1.7c1.4-1.1,2.1-2.7,2.1-4.7c0-1.8-0.7-3.2-2.2-4.1c-1.5-1-3.6-1.4-6.4-1.4H812v-2h2.6
			c2.2,0.5,4,0,5.3-1.1c1.3-1.1,2-2.5,2-4.3c0-1.5-0.5-2.7-1.6-3.6s-2.5-1.4-4.2-1.4c-1.3,0-2.6,0.2-3.7,0.6c-1.1,0.4-2.4,1-3.7,1.9
			l-0.9-1.2c1-0.9,2.3-1.6,3.8-2.1c1.5-0.5,3-0.8,4.5-0.8c2.5,0,4.4,0.6,5.8,1.8S823.9,271.6,823.9,273.8z"/>
	</g>
	<g>
		<path class="st1" d="M1038,288h-5v7h-2v-7h-14v-1.3l13.7-19.7h2.3v19h5V288z M1031,286v-7.7c0-3.7,0.1-6.8,0.3-9.3h-0.1
			c-0.2,0.5-1,1.6-2.3,3.5l-9.5,13.5H1031z"/>
	</g>
	<g>
		<path class="st1" d="M1236.9,278.2c2.9,0,5.2,0.7,6.8,2.1c1.7,1.4,2.5,3.3,2.5,5.8c0,2.8-0.9,4.9-2.6,6.5
			c-1.7,1.5-4.1,2.3-7.1,2.3c-1.3,0-2.6-0.1-3.8-0.4c-1.2-0.3-2.2-0.6-2.6-1.1v-1.9c0.9,0.7,2.1,1.2,3.1,1.4c1,0.3,2.1,0.4,3.3,0.4
			c2.4,0,4.3-0.6,5.7-1.9s2.1-2.9,2.1-5.1c0-2-0.7-3.6-2.1-4.7c-1.4-1.1-3.3-1.7-5.7-1.7c-1.6,0-3.3,0.2-5,0.7l-1.1-0.7l1.1-12.8
			h13.6v2h-11.8l-0.8,9.8C1234.3,278.4,1235.8,278.2,1236.9,278.2z"/>
	</g>
	<g>
		<path class="st1" d="M1439.9,282.5c0-3.5,0.5-6.5,1.4-8.9c1-2.4,2.3-4.2,4.1-5.3c1.8-1.2,3.9-1.7,6.4-1.7c1.2,0,2.2,0.1,3.2,0.4
			v1.6c-0.9-0.3-2-0.5-3.3-0.5c-3,0-5.4,1.1-7.1,3.3s-2.7,5.4-2.9,9.6h0.2c0.9-1.2,2-2.1,3.2-2.7s2.5-0.9,3.8-0.9
			c2.5,0,4.5,0.7,5.9,2.2s2.1,3.4,2.1,6c0,2.8-0.8,4.9-2.2,6.5c-1.5,1.6-3.5,2.4-6.1,2.4c-2.7,0-4.9-1-6.5-3.1
			C1440.7,289.2,1439.9,286.3,1439.9,282.5z M1448.8,293.2c2,0,3.6-0.6,4.7-1.9s1.7-3.1,1.7-5.4c0-2.1-0.6-3.7-1.7-4.9
			c-1.1-1.2-2.6-1.7-4.5-1.7c-1.3,0-2.4,0.3-3.5,0.8s-1.9,1.3-2.6,2.2c-0.6,0.9-1,1.9-1,2.8c0,1.4,0.3,2.7,0.9,4s1.4,2.3,2.5,3
			S1447.5,293.2,1448.8,293.2z"/>
	</g>
	<g>
		<path class="st1" d="M165.8,434l11-25H161v-2h18v1.6L167.9,434H165.8z"/>
	</g>
	<g>
		<path class="st1" d="M383.9,406.2c2.3,0,4.1,0.6,5.5,1.8c1.4,1.2,2.1,2.8,2.1,4.8c0,1.4-0.4,2.6-1.3,3.7s-2.3,2-4.2,2.9
			c2.4,1,4,2,5,3.2c1,1.2,1.4,2.6,1.4,4.2c0,2.2-0.8,4-2.3,5.4c-1.6,1.3-3.7,2-6.3,2c-2.7,0-4.8-0.6-6.3-1.9
			c-1.5-1.2-2.2-3.1-2.2-5.4c0-1.6,0.5-3,1.5-4.3c1-1.2,2.6-2.3,4.8-3.1c-2-0.9-3.4-1.9-4.2-3s-1.2-2.3-1.2-3.7c0-1.3,0.3-2.4,1-3.4
			c0.7-1,1.6-1.7,2.7-2.3S382.4,406.2,383.9,406.2z M377.2,427.1c0,1.7,0.6,3,1.7,4c1.2,0.9,2.8,1.4,4.8,1.4c2,0,3.7-0.5,4.9-1.5
			c1.2-1,1.9-2.3,1.9-4c0-1.5-0.5-2.8-1.5-3.7c-1-1-2.8-2-5.6-3c-2.3,0.9-3.9,1.8-4.8,2.9C377.7,424.1,377.2,425.5,377.2,427.1z
			 M383.8,407.9c-1.7,0-3.1,0.4-4.2,1.3c-1.1,0.9-1.6,2-1.6,3.5c0,0.9,0.2,1.6,0.6,2.3c0.4,0.7,1,1.3,1.7,1.8c0.7,0.5,2,1.2,3.7,1.9
			c2-0.8,3.5-1.6,4.3-2.6c0.9-0.9,1.3-2.1,1.3-3.4c0-1.5-0.5-2.7-1.6-3.5S385.6,407.9,383.8,407.9z"/>
	</g>
	<g>
		<path class="st1" d="M605.5,418.5c0,3.6-0.5,6.5-1.4,8.9c-0.9,2.4-2.3,4.2-4.1,5.3c-1.8,1.1-3.9,1.7-6.5,1.7
			c-1.3,0-2.5-0.2-3.6-0.5v-1.6c0.5,0.2,1.2,0.3,1.9,0.4c0.7,0.1,1.3,0.1,1.7,0.1c3,0,5.4-1.1,7.2-3.3s2.7-5.4,2.9-9.6h-0.2
			c-0.9,1.2-2,2.1-3.2,2.7c-1.2,0.6-2.5,1-3.9,1c-2.5,0-4.5-0.7-5.9-2.1c-1.4-1.4-2.1-3.3-2.1-5.9c0-2.7,0.8-4.9,2.3-6.6
			c1.5-1.7,3.5-2.5,6-2.5c1.8,0,3.3,0.5,4.7,1.4s2.4,2.3,3.1,4.1C605.1,413.9,605.5,416.1,605.5,418.5z M597.1,407.9
			c-2,0-3.5,0.7-4.7,2c-1.2,1.3-1.7,3.1-1.7,5.4c0,2.1,0.5,3.8,1.6,4.9c1.1,1.1,2.6,1.7,4.6,1.7c1.2,0,2.4-0.3,3.5-0.8
			c1.1-0.6,1.9-1.3,2.6-2.2s1-1.9,1-2.8c0-1.4-0.3-2.8-0.9-4.1c-0.6-1.3-1.4-2.2-2.4-3C599.6,408.2,598.4,407.9,597.1,407.9z"/>
	</g>
	<g>
		<path class="st1" d="M791,434h-2v-20c0.5-1.8,0.6-3.6,0.7-5.6c-0.2,0.2-0.4,0.4-0.6,0.5c-0.2,0.2-2.1,1.7-5.7,4.5l-1.1-1.3
			l7.3-5.2h1.3V434z"/>
		<path class="st1" d="M819.8,420.1c0,4.8-0.7,8.3-2.2,10.6c-1.4,2.3-3.6,3.4-6.6,3.4c-2.8,0-5-1.2-6.4-3.5s-2.2-5.8-2.2-10.5
			c0-4.7,0.7-8.2,2.1-10.5c1.4-2.3,3.6-3.4,6.5-3.4c2.8,0,5,1.2,6.5,3.5S819.8,415.6,819.8,420.1z M804.4,420.1
			c0,4.2,0.5,7.3,1.6,9.3c1.1,2,2.8,3,5,3c2.3,0,4-1,5.1-3.1c1.1-2.1,1.6-5.1,1.6-9.2c0-4-0.5-7-1.6-9.1c-1.1-2.1-2.8-3.1-5.1-3.1
			c-2.3,0-4,1-5.1,3.1S804.4,416.1,804.4,420.1z"/>
	</g>
	<g>
		<path class="st1" d="M1005,434h-2v-20c0.1-1.8,0.2-3.6,0.3-5.6c-0.2,0.2-0.4,0.4-0.6,0.5c-0.2,0.2-2.1,1.7-5.7,4.5l-1.1-1.3
			l7.3-5.2h1.7V434z"/>
		<path class="st1" d="M1027,434h-2v-20c-0.3-1.8-0.2-3.6-0.1-5.6c-0.2,0.2-0.4,0.4-0.6,0.5c-0.2,0.2-2.1,1.7-5.7,4.5l-1.1-1.3
			l7.3-5.2h2.1V434z"/>
	</g>
	<g>
		<path class="st1" d="M1219,434h-2v-20c-0.3-1.8-0.2-3.6-0.1-5.6c-0.2,0.2-0.4,0.4-0.6,0.5c-0.2,0.2-2.1,1.7-5.7,4.5l-1.1-1.3
			l7.3-5.2h2.1V434z"/>
		<path class="st1" d="M1246,434h-16v-1.9l6.8-7.5c2-2.1,3.4-3.7,4.3-4.8s1.4-2.2,1.8-3.2c0.4-1,0.6-2.1,0.6-3.2
			c0-1.6-0.5-2.9-1.6-3.9c-1.1-1-2.4-1.5-4.1-1.5c-2.3,0-4.4,0.8-6.5,2.5l-1-1.3c2.3-1.9,4.8-2.9,7.5-2.9c2.4,0,4.2,0.6,5.6,1.9
			s2,3,2,5.2c0,1.8-0.5,3.5-1.4,5.2s-2.6,3.7-5,6.2l-7,7.1v0.1h14V434z"/>
	</g>
	<g>
		<path class="st1" d="M1432,434h-2v-20c0.3-1.8,0.4-3.6,0.5-5.6c-0.2,0.2-0.4,0.4-0.6,0.5c-0.2,0.2-2.1,1.7-5.7,4.5l-1.1-1.3
			l7.3-5.2h1.5V434z"/>
		<path class="st1" d="M1459.3,413c0,1.7-0.5,3.1-1.6,4.2c-1.1,1.1-3.7,2.2-3.7,2.2v0.5c2.3,0.3,4,1,5.2,2.1
			c1.2,1.1,1.8,2.6,1.8,4.5c0,2.5-0.9,4.5-2.7,5.9c-1.8,1.4-4.4,2.1-7.7,2.1c-2.9,0-5.4-0.5-7.5-1.5v-1.8c1.1,0.5,2.3,1,3.6,1.3
			c1.3,0.3,2.6,0.5,3.8,0.5c2.8,0,5-0.6,6.4-1.7c1.4-1.1,2.1-2.7,2.1-4.7c0-1.8-0.7-3.2-2.2-4.1c-1.5-1-3.6-1.4-6.4-1.4h-3.4v-2h3
			c2.2-0.2,4-0.7,5.3-1.8c1.3-1.1,2-2.5,2-4.3c0-1.5-0.5-2.7-1.6-3.6s-2.5-1.4-4.2-1.4c-1.3,0-2.6,0.2-3.7,0.6s-2.4,1-3.7,1.9
			l-0.9-1.2c1-0.9,2.3-1.6,3.8-2.1c1.5-0.5,3-0.8,4.5-0.8c2.5,0,4.4,0.6,5.8,1.8S1459.3,410.9,1459.3,413z"/>
	</g>
	<g>
		<path class="st1" d="M165,573h-2v-19.7c0.3-1.8,0.4-3.6,0.5-5.6c-0.2,0.2-0.4,0.4-0.6,0.5s-2.1,1.7-5.7,4.5l-1.1-1.3l7.3-5.4h1.5
			V573z"/>
		<path class="st1" d="M195,566h-4v7h-2v-7h-14v-1.2l12.9-18.8h2.1v18h5V566z M189,564v-7.7c0-3.7,0.1-6.8,0.3-9.3h-0.1
			c-0.2,0.5-1,1.6-2.3,3.5l-9.5,13.5H189z"/>
	</g>
	<g>
		<path class="st1" d="M377,573h-2v-19.7c-0.1-1.8,0-3.6,0.1-5.6c-0.2,0.2-0.4,0.4-0.6,0.5s-2.1,1.7-5.7,4.5l-1.1-1.3l7.3-5.4h1.9
			V573z"/>
		<path class="st1" d="M395.7,556.7c2.9,0,5.2,0.7,6.8,2.1c1.7,1.4,2.5,3.3,2.5,5.8c0,2.8-0.9,4.9-2.6,6.5c-1.7,1.5-4.1,2.3-7.1,2.3
			c-1.3,0-2.6-0.1-3.8-0.4c-1.2-0.3-2.2-0.6-3.4-1.1v-1.9c1.7,0.7,2.9,1.2,3.9,1.4s2.1,0.4,3.3,0.4c2.4,0,4.3-0.6,5.7-1.9
			s2.1-2.9,2.1-5.1c0-2-0.7-3.6-2.1-4.7c-1.4-1.1-3.3-1.7-5.7-1.7c-1.6,0-3.3,0.2-5,0.7l-1.1-0.7l1.1-12.3H403v2h-11l-0.8,9.3
			C393.1,556.9,394.6,556.7,395.7,556.7z"/>
	</g>
	<g>
		<path class="st1" d="M589,573h-2v-19.7c0.5-1.8,0.6-3.6,0.7-5.6c-0.2,0.2-0.4,0.4-0.6,0.5s-2.1,1.7-5.7,4.5l-1.1-1.3l7.3-5.4h1.3
			V573z"/>
		<path class="st1" d="M600.9,561.5c0-3.5,0.5-6.5,1.4-8.9c1-2.4,2.3-4.2,4.1-5.3s3.9-1.7,6.4-1.7c1.2,0,2.2,0.1,3.2,0.4v1.6
			c-0.9-0.3-2-0.5-3.3-0.5c-3,0-5.4,1.1-7.1,3.3s-2.7,5.4-2.9,9.6h0.2c0.9-1.2,2-2.1,3.2-2.7c1.2-0.6,2.5-0.9,3.8-0.9
			c2.5,0,4.5,0.7,5.9,2.2s2.1,3.4,2.1,6c0,2.8-0.8,4.9-2.2,6.5c-1.5,1.6-3.5,2.4-6.1,2.4c-2.7,0-4.9-1-6.5-3.1
			C601.7,568.2,600.9,565.3,600.9,561.5z M609.6,571.7c2,0,3.6-0.6,4.7-1.9c1.1-1.3,1.7-3.1,1.7-5.4c0-2.1-0.6-3.7-1.7-4.8
			c-1.1-1.2-2.6-1.7-4.5-1.7c-1.3,0-2.4,0.3-3.5,0.8c-1.1,0.6-1.9,1.3-2.6,2.2c-0.6,0.9-1,1.9-1,2.8c0,1.4,0.3,2.7,0.9,4
			c0.6,1.3,1.4,2.3,2.5,3C607.2,571.4,608.4,571.7,609.6,571.7z"/>
	</g>
	<g>
		<path class="st1" d="M796,573h-2v-19.7c0.5-1.8,0.6-3.6,0.7-5.6c-0.2,0.2-0.4,0.4-0.6,0.5s-2.1,1.7-5.7,4.5l-1.1-1.3l7.3-5.4h1.3
			V573z"/>
		<path class="st1" d="M811.8,573l11-25H807v-2h18v1.6L813.9,573H811.8z"/>
	</g>
	<g>
		<path class="st1" d="M1005,573h-2v-19.7c0.1-1.8,0.2-3.6,0.3-5.6c-0.2,0.2-0.4,0.4-0.6,0.5s-2.1,1.7-5.7,4.5l-1.1-1.3l7.3-5.4h1.7
			V573z"/>
		<path class="st1" d="M1024.7,545.5c2.3,0,4.1,0.6,5.5,1.8s2.1,2.8,2.1,4.8c0,1.4-0.4,2.6-1.3,3.7c-0.9,1.1-2.3,2-4.2,2.9
			c2.4,1,4,2,5,3.2s1.4,2.6,1.4,4.2c0,2.2-0.8,4-2.3,5.4s-3.7,2-6.3,2c-2.7,0-4.8-0.6-6.3-1.9c-1.5-1.2-2.2-3.1-2.2-5.4
			c0-1.6,0.5-3,1.5-4.3c1-1.2,2.6-2.3,4.8-3.1c-2-0.9-3.4-1.9-4.2-3s-1.2-2.3-1.2-3.7c0-1.3,0.3-2.4,1-3.4c0.7-1,1.6-1.7,2.7-2.3
			C1021.9,545.7,1023.2,545.5,1024.7,545.5z M1018,566.3c0,1.7,0.6,3,1.7,4c1.2,0.9,2.8,1.4,4.8,1.4c2,0,3.7-0.5,4.9-1.5
			c1.2-1,1.9-2.3,1.9-4c0-1.5-0.5-2.8-1.5-3.7c-1-1-2.8-2-5.6-3c-2.3,0.9-3.9,1.8-4.8,2.9S1018,564.7,1018,566.3z M1024.7,547.1
			c-1.7,0-3.1,0.4-4.2,1.3s-1.6,2-1.6,3.5c0,0.9,0.2,1.6,0.6,2.3s0.9,1.3,1.7,1.8c0.7,0.5,2,1.2,3.7,1.9c2-0.8,3.5-1.6,4.3-2.6
			c0.9-0.9,1.3-2.1,1.3-3.4c0-1.5-0.5-2.7-1.6-3.5C1027.9,547.6,1026.5,547.1,1024.7,547.1z"/>
	</g>
	<g>
		<path class="st1" d="M1219,573h-2v-19.7c-0.3-1.8-0.2-3.6-0.1-5.6c-0.2,0.2-0.4,0.4-0.6,0.5s-2.1,1.7-5.7,4.5l-1.1-1.3l7.3-5.4
			h2.1V573z"/>
		<path class="st1" d="M1246.5,557.5c0,3.6-0.5,6.5-1.4,8.9c-0.9,2.4-2.3,4.2-4.1,5.3c-1.8,1.1-3.9,1.7-6.5,1.7
			c-1.3,0-2.5-0.2-3.6-0.5v-1.6c0.5,0.2,1.2,0.3,1.9,0.4c0.7,0.1,1.3,0.1,1.7,0.1c3,0,5.4-1.1,7.2-3.3c1.7-2.2,2.7-5.4,2.9-9.6h-0.2
			c-0.9,1.2-2,2.1-3.2,2.7c-1.2,0.6-2.5,1-3.9,1c-2.5,0-4.5-0.7-5.9-2.1s-2.1-3.3-2.1-5.9c0-2.7,0.8-4.9,2.3-6.6
			c1.5-1.7,3.5-2.5,6-2.5c1.8,0,3.3,0.5,4.7,1.4s2.4,2.3,3.1,4.1C1246.1,552.9,1246.5,555.1,1246.5,557.5z M1237.9,547.1
			c-2,0-3.5,0.7-4.7,2s-1.7,3.1-1.7,5.4c0,2.1,0.5,3.8,1.6,4.9c1.1,1.1,2.6,1.7,4.6,1.7c1.2,0,2.4-0.3,3.5-0.8s1.9-1.3,2.6-2.2
			c0.6-0.9,1-1.9,1-2.8c0-1.4-0.3-2.8-0.9-4.1c-0.6-1.3-1.4-2.2-2.4-3C1240.4,547.5,1239.2,547.1,1237.9,547.1z"/>
	</g>
	<g>
		<path class="st1" d="M1438,573h-16v-1.6l6.8-7.5c2-2.1,3.4-3.7,4.3-4.8c0.8-1.1,1.4-2.2,1.8-3.2c0.4-1,0.6-2.1,0.6-3.2
			c0-1.6-0.5-2.9-1.6-3.9c-1.1-1-2.4-1.5-4.1-1.5c-2.3,0-4.4,0.8-6.5,2.5l-1-1.3c2.3-1.9,4.8-2.9,7.5-2.9c2.4,0,4.2,0.6,5.6,1.9
			c1.4,1.3,2,3,2,5.2c0,1.8-0.5,3.5-1.4,5.2s-2.6,3.7-5,6.2l-7,7.1V571h14V573z"/>
		<path class="st1" d="M1460.7,559.4c0,4.8-0.7,8.3-2.2,10.6c-1.4,2.3-3.6,3.4-6.6,3.4c-2.8,0-5-1.2-6.4-3.5s-2.2-5.8-2.2-10.5
			c0-4.7,0.7-8.2,2.1-10.5c1.4-2.3,3.6-3.4,6.5-3.4c2.8,0,5,1.2,6.5,3.5C1459.9,551.4,1460.7,554.8,1460.7,559.4z M1445.3,559.4
			c0,4.2,0.5,7.3,1.6,9.3s2.8,3,5,3c2.3,0,4-1,5.1-3.1c1.1-2.1,1.6-5.1,1.6-9.2c0-4-0.5-7-1.6-9.1c-1.1-2.1-2.8-3.1-5.1-3.1
			c-2.3,0-4,1-5.1,3.1S1445.3,555.4,1445.3,559.4z"/>
	</g>
	<g>
		<path class="st1" d="M171,712h-16v-1.4l6.8-7.5c2-2.1,3.4-3.7,4.3-4.8c0.8-1.1,1.4-2.2,1.8-3.2c0.4-1,0.6-2.1,0.6-3.2
			c0-1.6-0.5-2.9-1.6-3.9c-1.1-1-2.4-1.5-4.1-1.5c-2.3,0-4.4,0.8-6.5,2.5l-1-1.3c2.3-1.9,4.8-2.9,7.5-2.9c2.4,0,4.2,0.6,5.6,1.9
			c1.4,1.3,2,3,2,5.2c0,1.8-0.5,3.5-1.4,5.2s-2.6,3.7-5,6.2l-7,7.1V710h14V712z"/>
		<path class="st1" d="M187,712h-2v-19.5c-0.1-1.8,0-3.6,0.2-5.6c-0.2,0.2-0.4,0.4-0.6,0.5s-2.1,1.7-5.7,4.5l-1.1-1.3l7.3-5.7h1.8
			V712z"/>
	</g>
	<g>
		<path class="st1" d="M383,712h-17v-1.4l7.4-7.5c2-2.1,3.4-3.7,4.3-4.8c0.8-1.1,1.4-2.2,1.8-3.2c0.4-1,0.6-2.1,0.6-3.2
			c0-1.6-0.5-2.9-1.6-3.9c-1.1-1-2.4-1.5-4.1-1.5c-2.3,0-4.4,0.8-6.5,2.5l-1-1.3c2.3-1.9,4.8-2.9,7.5-2.9c2.4,0,4.2,0.6,5.6,1.9
			c1.4,1.3,2,3,2,5.2c0,1.8-0.5,3.5-1.4,5.2s-2.6,3.7-5,6.2l-7.6,7.1V710h15V712z"/>
		<path class="st1" d="M405,712h-17v-1.4l7-7.5c2-2.1,3.4-3.7,4.3-4.8c0.8-1.1,1.4-2.2,1.8-3.2c0.4-1,0.6-2.1,0.6-3.2
			c0-1.6-0.5-2.9-1.6-3.9c-1.1-1-2.4-1.5-4.1-1.5c-2.3,0-4.4,0.8-6.5,2.5l-1-1.3c2.3-1.9,4.8-2.9,7.5-2.9c2.4,0,4.2,0.6,5.6,1.9
			c1.4,1.3,2,3,2,5.2c0,1.8-0.5,3.5-1.4,5.2s-2.6,3.7-5,6.2l-6.2,7.1V710h14V712z"/>
	</g>
	<g>
		<path class="st1" d="M595,712h-16v-1.4l7-7.5c2-2.1,3.4-3.7,4.3-4.8c0.8-1.1,1.4-2.2,1.8-3.2c0.4-1,0.6-2.1,0.6-3.2
			c0-1.6-0.5-2.9-1.6-3.9c-1.1-1-2.4-1.5-4.1-1.5c-2.3,0-4.4,0.8-6.5,2.5l-1-1.3c2.3-1.9,4.8-2.9,7.5-2.9c2.4,0,4.2,0.6,5.6,1.9
			c1.4,1.3,2,3,2,5.2c0,1.8-0.5,3.5-1.4,5.2s-2.6,3.7-5,6.2l-7.2,7.1V710h14V712z"/>
		<path class="st1" d="M616.5,691.5c0,1.7-0.5,3.1-1.6,4.2c-1.1,1.1-4.9,2.2-4.9,2.2v0c2.1,0.3,3.6,1,4.7,2.1
			c1.1,1.1,1.6,2.6,1.6,4.5c0,2.5-0.8,4.5-2.4,5.9c-1.6,1.4-4,2.1-7,2.1c-2.6,0-4.9-0.5-6.8-1.5v-1.8c1,0.5,2.1,1,3.3,1.3
			c1.2,0.3,2.4,0.5,3.4,0.5c2.6,0,4.5-0.6,5.8-1.7c1.3-1.1,1.9-2.7,1.9-4.7c0-1.8-0.7-3.2-2-4.1c-1.3-1-3.3-1.4-5.9-1.4H604v-2h3.2
			c2.2,0.3,4-0.2,5.3-1.3s2-2.5,2-4.3c0-1.5-0.5-2.7-1.6-3.6c-1.1-0.9-2.5-1.4-4.2-1.4c-1.3,0-2.6,0.2-3.7,0.6
			c-1.1,0.4-2.4,1-3.7,1.9l-0.9-1.2c1-0.9,2.3-1.6,3.8-2.1c1.5-0.5,3-0.8,4.5-0.8c2.5,0,4.4,0.6,5.8,1.8
			C615.8,687.7,616.5,689.4,616.5,691.5z"/>
	</g>
	<g>
		<path class="st1" d="M802,712h-16v-1.4l7-7.5c2-2.1,3.4-3.7,4.3-4.8c0.8-1.1,1.4-2.2,1.8-3.2c0.4-1,0.6-2.1,0.6-3.2
			c0-1.6-0.5-2.9-1.6-3.9c-1.1-1-2.4-1.5-4.1-1.5c-2.3,0-4.4,0.8-6.5,2.5l-1-1.3c2.3-1.9,4.8-2.9,7.5-2.9c2.4,0,4.2,0.6,5.6,1.9
			c1.4,1.3,2,3,2,5.2c0,1.8-0.5,3.5-1.4,5.2s-2.6,3.7-5,6.2l-7.2,7.1V710h14V712z"/>
		<path class="st1" d="M827,706h-5v6h-2v-6l-14-1v-1.2l13.7-18.8h2.3v19h5V706z M820,704v-7.7c0-3.7,0.1-6.8,0.3-9.3h-0.1
			c-0.2,0.5-1,1.6-2.3,3.5l-9.5,13.5H820z"/>
	</g>
	<g>
		<path class="st1" d="M1011,712h-16v-1.4l6.6-7.5c2-2.1,3.4-3.7,4.3-4.8c0.8-1.1,1.4-2.2,1.8-3.2c0.4-1,0.6-2.1,0.6-3.2
			c0-1.6-0.5-2.9-1.6-3.9c-1.1-1-2.4-1.5-4.1-1.5c-2.3,0-4.4,0.8-6.5,2.5l-1-1.3c2.3-1.9,4.8-2.9,7.5-2.9c2.4,0,4.2,0.6,5.6,1.9
			c1.4,1.3,2,3,2,5.2c0,1.8-0.5,3.5-1.4,5.2c-0.9,1.7-2.6,3.7-5,6.2l-6.8,7.1V710h14V712z"/>
		<path class="st1" d="M1023.9,696c2.9,0,5.2,0.7,6.8,2.1c1.7,1.4,2.5,3.3,2.5,5.8c0,2.8-0.9,4.9-2.6,6.5c-1.7,1.5-4.1,2.3-7.1,2.3
			c-1.3,0-2.6-0.1-3.8-0.4c-1.2-0.3-2.2-0.6-2.6-1.1v-1.9c0.9,0.7,2.1,1.2,3.1,1.4c1,0.3,2.1,0.4,3.3,0.4c2.4,0,4.3-0.6,5.7-1.9
			s2.1-2.9,2.1-5.1c0-2-0.7-3.6-2.1-4.7c-1.4-1.1-3.3-1.7-5.7-1.7c-1.6,0-3.3,0.2-5,0.7l-1.1-0.7l1.1-12.6h13.6v2h-11.8l-0.8,9.5
			C1021.3,696.1,1022.8,696,1023.9,696z"/>
	</g>
	<g>
		<path class="st1" d="M1225,712h-17v-1.4l7.2-7.5c2-2.1,3.4-3.7,4.3-4.8c0.8-1.1,1.4-2.2,1.8-3.2c0.4-1,0.6-2.1,0.6-3.2
			c0-1.6-0.5-2.9-1.6-3.9c-1.1-1-2.4-1.5-4.1-1.5c-2.3,0-4.4,0.8-6.5,2.5l-1-1.3c2.3-1.9,4.8-2.9,7.5-2.9c2.4,0,4.2,0.6,5.6,1.9
			c1.4,1.3,2,3,2,5.2c0,1.8-0.5,3.5-1.4,5.2s-2.6,3.7-5,6.2l-6.4,7.1V710h14V712z"/>
		<path class="st1" d="M1229.9,700.5c0-3.5,0.5-6.5,1.4-8.9c1-2.4,2.3-4.2,4.1-5.3s3.9-1.7,6.4-1.7c1.2,0,2.2,0.1,3.2,0.4v1.6
			c-0.9-0.3-2-0.5-3.3-0.5c-3,0-5.4,1.1-7.1,3.3s-2.7,5.4-2.9,9.6h0.2c0.9-1.2,2-2.1,3.2-2.7c1.2-0.6,2.5-0.9,3.8-0.9
			c2.5,0,4.5,0.7,5.9,2.2s2.1,3.4,2.1,6c0,2.8-0.8,4.9-2.2,6.5c-1.5,1.6-3.5,2.4-6.1,2.4c-2.7,0-4.9-1-6.5-3.1
			C1230.7,707.2,1229.9,704.3,1229.9,700.5z M1238.8,711c2,0,3.6-0.6,4.7-1.9c1.1-1.3,1.7-3.1,1.7-5.4c0-2.1-0.6-3.7-1.7-4.8
			c-1.1-1.2-2.6-1.7-4.5-1.7c-1.3,0-2.4,0.3-3.5,0.8c-1.1,0.6-1.9,1.3-2.6,2.2c-0.6,0.9-1,1.9-1,2.8c0,1.4,0.3,2.7,0.9,4
			c0.6,1.3,1.4,2.3,2.5,3C1236.4,710.6,1237.6,711,1238.8,711z"/>
	</g>
	<g>
		<path class="st1" d="M1438,712h-15v-1.6l5.8-7.5c1.6-2.1,2.8-3.7,3.5-4.8c0.7-1.1,1.1-2.2,1.5-3.2c0.3-1,0.5-2.1,0.5-3.2
			c0-1.6-0.4-2.9-1.3-3.9c-0.9-1-2-1.5-3.4-1.5c-1.8,0-3.6,0.8-5.3,2.5l-0.8-1.3c1.8-1.9,3.9-2.9,6.1-2.9c1.9,0,3.4,0.6,4.5,1.9
			c1.1,1.3,1.6,3,1.6,5.2c0,1.8-0.4,3.5-1.1,5.2s-2.1,3.7-4,6.2l-5.6,7.1V710h13V712z"/>
		<path class="st1" d="M1445.6,712l9.5-25H1442v-2h15v1.6l-9.6,25.4H1445.6z"/>
	</g>
	<g>
		<path class="st1" d="M171,852h-16v-2.1l6.8-7.5c2-2.1,3.4-3.7,4.3-4.8c0.8-1.1,1.4-2.2,1.8-3.2c0.4-1,0.6-2.1,0.6-3.2
			c0-1.6-0.5-2.9-1.6-3.9c-1.1-1-2.4-1.5-4.1-1.5c-2.3,0-4.4,0.8-6.5,2.5l-1-1.3c2.3-1.9,4.8-2.9,7.5-2.9c2.4,0,4.2,0.6,5.6,1.9
			c1.4,1.3,2,3,2,5.2c0,1.8-0.5,3.5-1.4,5.2s-2.6,3.7-5,6.2l-7,7.1v0.4h14V852z"/>
		<path class="st1" d="M184.9,824c2.3,0,4.1,0.6,5.5,1.8c1.4,1.2,2.1,2.8,2.1,4.8c0,1.4-0.4,2.6-1.3,3.7c-0.9,1.1-2.3,2-4.2,2.9
			c2.4,1,4,2,5,3.2c1,1.2,1.4,2.6,1.4,4.2c0,2.2-0.8,4-2.3,5.4c-1.6,1.3-3.7,2-6.3,2c-2.7,0-4.8-0.6-6.3-1.9
			c-1.5-1.2-2.2-3.1-2.2-5.4c0-1.6,0.5-3,1.5-4.3c1-1.2,2.6-2.3,4.8-3.1c-2-0.9-3.4-1.9-4.2-3s-1.2-2.3-1.2-3.7c0-1.3,0.3-2.4,1-3.4
			c0.7-1,1.6-1.7,2.7-2.3C182.1,824.2,183.5,824,184.9,824z M178.3,844.8c0,1.7,0.6,3,1.7,4c1.2,0.9,2.8,1.4,4.8,1.4
			c2,0,3.7-0.5,4.9-1.5c1.2-1,1.9-2.3,1.9-4c0-1.5-0.5-2.8-1.5-3.7c-1-1-2.8-2-5.6-3c-2.3,0.9-3.9,1.8-4.8,2.9
			C178.7,841.9,178.3,843.2,178.3,844.8z M184.9,825.6c-1.7,0-3.1,0.4-4.2,1.3c-1.1,0.9-1.6,2-1.6,3.5c0,0.9,0.2,1.6,0.6,2.3
			s1,1.3,1.7,1.8c0.7,0.5,2,1.2,3.7,1.9c2-0.8,3.5-1.6,4.3-2.6c0.9-0.9,1.3-2.1,1.3-3.4c0-1.5-0.5-2.7-1.6-3.5
			C188.1,826.1,186.7,825.6,184.9,825.6z"/>
	</g>
	<g>
		<path class="st1" d="M383,852h-17v-2.1l7.4-7.5c2-2.1,3.4-3.7,4.3-4.8c0.8-1.1,1.4-2.2,1.8-3.2c0.4-1,0.6-2.1,0.6-3.2
			c0-1.6-0.5-2.9-1.6-3.9c-1.1-1-2.4-1.5-4.1-1.5c-2.3,0-4.4,0.8-6.5,2.5l-1-1.3c2.3-1.9,4.8-2.9,7.5-2.9c2.4,0,4.2,0.6,5.6,1.9
			c1.4,1.3,2,3,2,5.2c0,1.8-0.5,3.5-1.4,5.2s-2.6,3.7-5,6.2l-7.6,7.1v0.4h15V852z"/>
		<path class="st1" d="M404.5,835.5c0,3.6-0.5,6.5-1.4,8.9c-0.9,2.4-2.3,4.2-4.1,5.3c-1.8,1.1-3.9,1.7-6.5,1.7
			c-1.3,0-2.5-0.2-3.6-0.5v-1.6c0.5,0.2,1.2,0.3,1.9,0.4c0.7,0.1,1.3,0.1,1.7,0.1c3,0,5.4-1.1,7.2-3.3c1.7-2.2,2.7-5.4,2.9-9.6h-0.2
			c-0.9,1.2-2,2.1-3.2,2.7c-1.2,0.6-2.5,1-3.9,1c-2.5,0-4.5-0.7-5.9-2.1c-1.4-1.4-2.1-3.3-2.1-5.9c0-2.7,0.8-4.9,2.3-6.6
			c1.5-1.7,3.5-2.5,6-2.5c1.8,0,3.3,0.5,4.7,1.4s2.4,2.3,3.1,4.1C404.1,830.9,404.5,833.1,404.5,835.5z M396.1,825.6
			c-2,0-3.5,0.7-4.7,2c-1.2,1.3-1.7,3.1-1.7,5.4c0,2.1,0.5,3.8,1.6,4.9c1.1,1.1,2.6,1.7,4.6,1.7c1.2,0,2.4-0.3,3.5-0.8
			s1.9-1.3,2.6-2.2c0.6-0.9,1-1.9,1-2.8c0-1.4-0.3-2.8-0.9-4.1s-1.4-2.2-2.4-3C398.6,826,397.4,825.6,396.1,825.6z"/>
	</g>
	<g>
		<path class="st1" d="M594.8,830.8c0,1.7-0.5,3.1-1.6,4.2c-1.1,1.1-4.2,2.2-4.2,2.2V837c2.3,0.3,4,1,5.2,2.1
			c1.2,1.1,1.8,2.6,1.8,4.5c0,2.5-0.9,4.5-2.7,5.9s-4.4,2.1-7.7,2.1c-2.9,0-5.4-0.5-7.5-1.5v-1.8c1.1,0.5,2.3,1,3.6,1.3
			c1.3,0.3,2.6,0.5,3.8,0.5c2.8,0,5-0.6,6.4-1.7c1.4-1.1,2.1-2.7,2.1-4.7c0-1.8-0.7-3.2-2.2-4.1c-1.5-1-3.6-1.4-6.4-1.4H583v-2h2.5
			c2.2,0.5,4,0,5.3-1.1s2-2.5,2-4.3c0-1.5-0.5-2.7-1.6-3.6c-1.1-0.9-2.5-1.4-4.2-1.4c-1.3,0-2.6,0.2-3.7,0.6c-1.1,0.4-2.4,1-3.7,1.9
			l-0.9-1.2c1-0.9,2.3-1.6,3.8-2.1c1.5-0.5,3-0.8,4.5-0.8c2.5,0,4.4,0.6,5.8,1.8C594.1,827,594.8,828.6,594.8,830.8z"/>
		<path class="st1" d="M617.9,837.9c0,4.8-0.7,8.3-2.2,10.6c-1.5,2.3-3.6,3.4-6.6,3.4c-2.8,0-5-1.2-6.4-3.5s-2.2-5.8-2.2-10.5
			c0-4.7,0.7-8.2,2.1-10.5c1.4-2.3,3.6-3.4,6.5-3.4c2.9,0,5,1.2,6.5,3.5C617.1,829.9,617.9,833.3,617.9,837.9z M602.5,837.9
			c0,4.2,0.5,7.3,1.6,9.3c1.1,2,2.8,3,5,3c2.3,0,4-1,5.1-3.1c1.1-2.1,1.6-5.1,1.6-9.2c0-4-0.5-7-1.6-9.1c-1.1-2.1-2.8-3.1-5.1-3.1
			c-2.3,0-4,1-5.1,3.1S602.5,833.9,602.5,837.9z"/>
	</g>
	<g class="st2">
		<path class="st1" d="M801.8,830.8c0,1.7-0.5,3.1-1.6,4.2c-1.1,1.1-4.2,2.2-4.2,2.2V837c2.3,0.3,4,1,5.2,2.1
			c1.2,1.1,1.8,2.6,1.8,4.5c0,2.5-0.9,4.5-2.7,5.9c-1.8,1.4-4.4,2.1-7.7,2.1c-2.9,0-5.4-0.5-7.5-1.5v-1.8c1.1,0.5,2.3,1,3.6,1.3
			c1.3,0.3,2.6,0.5,3.8,0.5c2.8,0,5-0.6,6.4-1.7c1.4-1.1,2.1-2.7,2.1-4.7c0-1.8-0.7-3.2-2.2-4.1c-1.5-1-3.6-1.4-6.4-1.4H790v-2h2.5
			c2.2,0.5,4,0,5.3-1.1s2-2.5,2-4.3c0-1.5-0.5-2.7-1.6-3.6c-1.1-0.9-2.5-1.4-4.2-1.4c-1.3,0-2.6,0.2-3.7,0.6c-1.1,0.4-2.4,1-3.7,1.9
			l-0.9-1.2c1-0.9,2.3-1.6,3.8-2.1c1.5-0.5,3-0.8,4.5-0.8c2.5,0,4.4,0.6,5.8,1.8C801.1,827,801.8,828.6,801.8,830.8z"/>
		<path class="st1" d="M818,851h-2v-19.2c0.1-1.8,0.2-3.6,0.3-5.6c-0.2,0.2-0.4,0.4-0.6,0.5s-2.1,1.7-5.7,4.5l-1.1-1.3l7.3-5.9h1.7
			V851z"/>
	</g>
	<g class="st2">
		<path class="st1" d="M1029,851h-2v-19.2c0.1-1.8,0.2-3.6,0.3-5.6c-0.2,0.2-0.4,0.4-0.6,0.5s-2.1,1.7-5.7,4.5l-1.1-1.3l7.3-5.9h1.7
			V851z"/>
	</g>
	<g class="st2">
		<path class="st1" d="M1248,852h-17v-2.1l7.2-7.5c2-2.1,3.4-3.7,4.3-4.8c0.8-1.1,1.4-2.2,1.8-3.2c0.4-1,0.6-2.1,0.6-3.2
			c0-1.6-0.5-2.9-1.6-3.9c-1.1-1-2.4-1.5-4.1-1.5c-2.3,0-4.4,0.8-6.5,2.5l-1-1.3c2.3-1.9,4.8-2.9,7.5-2.9c2.4,0,4.2,0.6,5.6,1.9
			c1.4,1.3,2,3,2,5.2c0,1.8-0.5,3.5-1.4,5.2s-2.6,3.7-5,6.2l-6.4,7.1v0.4h14V852z"/>
	</g>
	<g class="st2">
		<path class="st1" d="M1455.2,830.8c0,1.7-0.5,3.1-1.4,4.2c-0.9,1.1-3.8,2.2-3.8,2.2V837c1.9,0.3,3.3,1,4.2,2.1
			c1,1.1,1.5,2.6,1.5,4.5c0,2.5-0.7,4.5-2.2,5.9c-1.5,1.4-3.6,2.1-6.3,2.1c-2.3,0-4.4-0.5-6.1-1.5v-1.8c0.9,0.5,1.9,1,3,1.3
			c1.1,0.3,2.1,0.5,3.1,0.5c2.3,0,4.1-0.6,5.2-1.7c1.2-1.1,1.8-2.7,1.8-4.7c0-1.8-0.6-3.2-1.8-4.1c-1.2-1-3-1.4-5.3-1.4h-3v-2h3.1
			c1.9,0.5,3.5,0,4.6-1.1c1.1-1.1,1.7-2.5,1.7-4.3c0-1.5-0.5-2.7-1.4-3.6c-0.9-0.9-2.1-1.4-3.6-1.4c-1.2,0-2.2,0.2-3.2,0.6
			c-1,0.4-2,1-3.2,1.9l-0.8-1.2c0.9-0.9,2-1.6,3.3-2.1c1.3-0.5,2.6-0.8,3.9-0.8c2.2,0,3.8,0.6,5,1.8
			C1454.6,827,1455.2,828.6,1455.2,830.8z"/>
	</g>
	<text transform="matrix(1 0 0 1 89.9961 159.3389)" class="st3 st4 st5">dom</text>
	<text transform="matrix(1 0 0 1 332.2424 159.3389)" class="st6 st4 st5">lun</text>
	<text transform="matrix(1 0 0 1 526.0945 159.3389)" class="st6 st4 st5">mar</text>
	<text transform="matrix(1 0 0 1 744.7373 159.3389)" class="st6 st4 st5">mié</text>
	<text transform="matrix(1 0 0 1 970.217 159.3389)" class="st6 st4 st5">jue</text>
	<text transform="matrix(1 0 0 1 1188.2556 159.3389)" class="st6 st4 st5">vie</text>
	<g>
		<text transform="matrix(1 0 0 1 1383.9004 159.3389)" class="st3 st4 st5">sáb</text>
	</g>
	<g>
		<g>
			<circle class="st7" cx="516" cy="807" r="31"/>
			<path class="st7" d="M428.4,782H447c1.7,0,3,1.3,3,3v0.8c0,1.7-1.4,3.2-3.2,3.2h-80.7c-1.7,0-3.2,1.4-3.2,3.2v0.7
				c0,1.7,1.4,3.2,3.2,3.2h34.7c1.7,0,3.2,1.4,3.2,3.2v0.7c0,1.7-1.4,3.2-3.2,3.2h-20.7c-1.7,0-3.2,1.4-3.2,3.2v0.7
				c0,1.7,1.4,3.2,3.2,3.2h32.7c1.7,0,3.2,1.4,3.2,3.2v0.7c0,1.7-1.4,3.2-3.2,3.2h-46.7c-1.7,0-3.2,1.4-3.2,3.2v0.7
				c0,1.7,1.4,3.2,3.2,3.2h65.7c1.7,0,3.2,1.4,3.2,3.2v0.8c0,1.7-1.3,3-3,3h-31c-1.7,0-3,1.3-3,3l0,0c0,1.7,1.3,3,3,3h112
				c1.7,0,3-1.3,3-3v-55c0-1.7-1.3-3-3-3h-84.6c-1.7,0-3,1.3-3,3l0,0C425.4,780.7,426.8,782,428.4,782z"/>
			<path class="st8" d="M462,789h22.6c1.7,0,3,1.3,3,3l0,0c0,1.7-1.3,3-3,3H445c-1.7,0-3,1.3-3,3v1.8c0,1.7,1.4,3.2,3.2,3.2h23.7
				c1.7,0,3.2,1.4,3.2,3.2v0.7c0,1.7-1.4,3.2-3.2,3.2h-37.7c-1.7,0-3.2,1.4-3.2,3.2v0.7c0,1.7,1.4,3.2,3.2,3.2h48.7
				c1.7,0,3.2,1.4,3.2,3.2v0.7c0,1.7-1.4,3.2-3.2,3.2h-11.7c-1.7,0-3.2,1.4-3.2,3.2v0.7c0,1.7,1.4,3.2,3.2,3.2h44.7
				c1.7,0,3.2-1.4,3.2-3.2v-42.7c0-1.7-1.4-3.2-3.2-3.2h-50.7c-1.7,0-3.2,1.4-3.2,3.2v0.8C459,787.7,460.3,789,462,789z"/>
			<circle class="st0" cx="516.5" cy="806.5" r="24.5"/>
			<path class="st8" d="M455,826.5v2c0,1.4-1.1,2.5-2.5,2.5h-6c-1.4,0-2.5-1.1-2.5-2.5v-2c0-1.4,1.1-2.5,2.5-2.5h6
				C453.9,824,455,825.1,455,826.5z"/>
			<path class="st8" d="M435,798.5v2c0,1.4-1.1,2.5-2.5,2.5h-14c-1.4,0-2.5-1.1-2.5-2.5v-2c0-1.4,1.1-2.5,2.5-2.5h14
				C433.9,796,435,797.1,435,798.5z"/>
			<path class="st7" d="M350,833.2v1.5c0,1.2-1,2.2-2.2,2.2h-16.5c-1.2,0-2.2-1-2.2-2.2v-1.5c0-1.2,1-2.2,2.2-2.2h16.5
				C349,831,350,832,350,833.2z"/>
			<path class="st7" d="M343,806.2v1.5c0,1.2-1,2.2-2.2,2.2h-46.5c-1.2,0-2.2-1-2.2-2.2v-1.5c0-1.2,1-2.2,2.2-2.2h46.5
				C342,804,343,805,343,806.2z"/>
			<path class="st7" d="M416,778.2v1.5c0,1.2-1,2.2-2.2,2.2h-7.5c-1.2,0-2.2-1-2.2-2.2v-1.5c0-1.2,1-2.2,2.2-2.2h7.5
				C415,776,416,777,416,778.2z"/>
			<path class="st7" d="M355,792.2v1.5c0,1.2-1,2.2-2.2,2.2h-16.5c-1.2,0-2.2-1-2.2-2.2v-1.5c0-1.2,1-2.2,2.2-2.2h16.5
				C354,790,355,791,355,792.2z"/>
		</g>
	</g>
	<circle class="st9" cx="317.5" cy="247.5" r="23"/>
	<circle class="st10" cx="526.5" cy="247.5" r="23"/>
	<path class="st11" d="M1390.5,247.5c0-12-9.2-21.9-21-22.9v-0.1H739c-12,0-22.4,9-23.4,20.9c-1.2,13.6,9.5,25.1,22.9,25.1h631v-0.1
		C1381.3,269.4,1390.5,259.5,1390.5,247.5z"/>
	<path class="st11" d="M1372,359.5H105.5c-12,0-22.4,9-23.4,20.9c-1.2,13.6,9.5,25.1,22.9,25.1h1266.5c12,0,22.4-9,23.4-20.9
		C1396.1,370.9,1385.4,359.5,1372,359.5z"/>
	<circle class="st12" cx="105.5" cy="527.5" r="23"/>
	<path class="st13" d="M1372,504.5H317.5c-12,0-22.4,9-23.4,20.9c-1.2,13.6,9.5,25.1,22.9,25.1h1054.5c12,0,22.4-9,23.4-20.9
		C1396.1,515.9,1385.4,504.5,1372,504.5z"/>
	<path class="st13" d="M1390.4,665.4c-1.1-11.9-11.4-20.9-23.4-20.9H106.5v0c-0.3,0-0.7,0-1,0c-12.7,0-23,10.3-23,23
		c0,12.7,10.3,23,23,23c0.3,0,0.7,0,1,0v0h1261C1380.9,690.5,1391.6,679.1,1390.4,665.4z"/>
	<circle class="st14" cx="105.5" cy="807.5" r="23"/>
</g>
</svg>
