<svg id="Layer_1" data-name="Layer 1" xmlns="http://www.w3.org/2000/svg" viewBox="0 0 557 208.62"><defs><style>.cls-1{fill:#5b0155;}.cls-2{fill:#ff4a0b;}.cls-3{fill:#fff;}.cls-4{font-size:159.13px;fill:#020202;font-family:Roboto-Bold, Roboto;}.cls-5,.cls-6{font-weight:700;}.cls-6{letter-spacing:-0.01em;}.cls-7{font-family:Roboto-Thin, Roboto;}</style></defs><title>logo-home</title><circle class="cls-1" cx="535" cy="186.62" r="22"/><path class="cls-1" d="M473.38,157.81h13a2.25,2.25,0,0,1,2.25,2.25v.5a2.25,2.25,0,0,1-2.25,2.25h-58a2.25,2.25,0,0,0-2.25,2.25v.5a2.25,2.25,0,0,0,2.25,2.25h24.5a2.25,2.25,0,0,1,2.25,2.25v.5a2.25,2.25,0,0,1-2.25,2.25h-14.5a2.25,2.25,0,0,0-2.25,2.25v.5a2.25,2.25,0,0,0,2.25,2.25h23.5a2.25,2.25,0,0,1,2.25,2.25v.5a2.25,2.25,0,0,1-2.25,2.25h-33.5a2.25,2.25,0,0,0-2.25,2.25v.5a2.25,2.25,0,0,0,2.25,2.25h47a2.25,2.25,0,0,1,2.25,2.25v.5a2.25,2.25,0,0,1-2.25,2.25h-22a2.25,2.25,0,0,0-2.25,2.25h0a2.25,2.25,0,0,0,2.25,2.25h80a2.25,2.25,0,0,0,2.25-2.25v-39.5a2.25,2.25,0,0,0-2.25-2.25h-60a2.25,2.25,0,0,0-2.25,2.25h0A2.25,2.25,0,0,0,473.38,157.81Z" transform="translate(-0.5 11.31)"/><path class="cls-2" d="M497.38,162.81h16.5a2.25,2.25,0,0,1,2.25,2.25h0a2.25,2.25,0,0,1-2.25,2.25h-29a2.25,2.25,0,0,0-2.25,2.25v1a2.25,2.25,0,0,0,2.25,2.25h17a2.25,2.25,0,0,1,2.25,2.25v.5a2.25,2.25,0,0,1-2.25,2.25h-27a2.25,2.25,0,0,0-2.25,2.25v.5a2.25,2.25,0,0,0,2.25,2.25h34.5a2.25,2.25,0,0,1,2.25,2.25v.5a2.25,2.25,0,0,1-2.25,2.25h-8.5a2.25,2.25,0,0,0-2.25,2.25v.5a2.25,2.25,0,0,0,2.25,2.25h32.5a2.25,2.25,0,0,0,2.25-2.25v-30.5a2.25,2.25,0,0,0-2.25-2.25h-36a2.25,2.25,0,0,0-2.25,2.25v.5A2.25,2.25,0,0,0,497.38,162.81Z" transform="translate(-0.5 11.31)"/><circle class="cls-3" cx="535" cy="186.74" r="17.38"/><rect class="cls-2" x="485.13" y="186.31" width="5" height="8" rx="2.5" ry="2.5" transform="translate(296.82 689.24) rotate(-90)"/><rect class="cls-2" x="468.38" y="163.31" width="5" height="13.5" rx="2.5" ry="2.5" transform="translate(300.32 652.24) rotate(-90)"/><rect class="cls-1" x="407.34" y="187.52" width="4.5" height="15.07" rx="2.25" ry="2.25" transform="translate(214.03 615.96) rotate(-90)"/><rect class="cls-1" x="391.53" y="157.21" width="4.5" height="36.69" rx="2.25" ry="2.25" transform="translate(217.73 580.65) rotate(-90)"/><rect class="cls-1" x="457.25" y="151.18" width="4.5" height="8.75" rx="2.25" ry="2.25" transform="translate(303.45 626.37) rotate(-90)"/><rect class="cls-1" x="410.34" y="157.77" width="4.5" height="15.07" rx="2.25" ry="2.25" transform="translate(246.78 589.21) rotate(-90)"/><text class="cls-4" transform="translate(0 136.13)"><tspan class="cls-5">D</tspan><tspan class="cls-6" x="105.28" y="0">r</tspan><tspan class="cls-5" x="159.83" y="0">ea</tspan><tspan class="cls-7" x="328.51" y="0">Mx</tspan></text></svg>