<svg xmlns="http://www.w3.org/2000/svg" viewBox="177.912 1382 615.015 243.445"><defs><style>.a{fill:#5b0155;}.b{fill:#ff4a0b;}.c,.d{fill:#fff;}.d{font-size:175px;font-family:Roboto-Bold, Roboto;font-weight:700;}.e{font-family:Roboto-Thin, Roboto;font-weight:200;}</style></defs><g transform="translate(161.54 1393.87)"><g transform="translate(0 176.888)"><g transform="translate(430.421 5.55)"><circle class="a" cx="24.293" cy="24.293" r="24.293" transform="translate(152.381 0.552)"/><path class="a" d="M492.619,169.621h14.355a2.451,2.451,0,0,1,2.429,2.429v.552a2.451,2.451,0,0,1-2.429,2.429H442.929a2.451,2.451,0,0,0-2.429,2.429v.552a2.451,2.451,0,0,0,2.429,2.429h27.053a2.451,2.451,0,0,1,2.429,2.429v.552a2.451,2.451,0,0,1-2.429,2.429H453.971a2.451,2.451,0,0,0-2.429,2.429v.552a2.451,2.451,0,0,0,2.429,2.429H479.92a2.451,2.451,0,0,1,2.429,2.429v.552a2.451,2.451,0,0,1-2.429,2.429H442.929a2.476,2.476,0,0,0-2.429,2.54v.552a2.451,2.451,0,0,0,2.429,2.429h51.9a2.451,2.451,0,0,1,2.429,2.429v.552a2.549,2.549,0,0,1-2.429,2.54H470.535a2.451,2.451,0,0,0-2.429,2.429h0a2.451,2.451,0,0,0,2.429,2.429h88.337a2.451,2.451,0,0,0,2.429-2.429V166.529a2.451,2.451,0,0,0-2.429-2.429H492.619a2.451,2.451,0,0,0-2.429,2.429h0C490.189,168.517,491.294,169.621,492.619,169.621Z" transform="translate(-384.517 -164.1)"/><path class="b" d="M514.274,174.663h18.22a2.451,2.451,0,0,1,2.429,2.429h0a2.451,2.451,0,0,1-2.429,2.429H500.471a2.451,2.451,0,0,0-2.429,2.429v1.1a2.451,2.451,0,0,0,2.429,2.429h18.772a2.451,2.451,0,0,1,2.429,2.429v.552a2.451,2.451,0,0,1-2.429,2.429H489.429A2.451,2.451,0,0,0,487,193.324v.552a2.451,2.451,0,0,0,2.429,2.429h38.1a2.476,2.476,0,0,1,2.429,2.54v.552a2.451,2.451,0,0,1-2.429,2.429h-9.386a2.451,2.451,0,0,0-2.429,2.429v.552a2.549,2.549,0,0,0,2.429,2.54h35.887a2.476,2.476,0,0,0,2.429-2.54V171.129a2.451,2.451,0,0,0-2.429-2.429H514.274a2.451,2.451,0,0,0-2.429,2.429v.552C511.845,173.559,512.949,174.663,514.274,174.663Z" transform="translate(-379.671 -163.621)"/><circle class="c" cx="19.213" cy="19.213" r="19.213" transform="translate(157.46 5.742)"/><path class="b" d="M506.834,201.861h0a2.734,2.734,0,0,1-2.76,2.761h-3.313A2.734,2.734,0,0,1,498,201.861h0a2.734,2.734,0,0,1,2.761-2.761h3.313A2.8,2.8,0,0,1,506.834,201.861Z" transform="translate(-378.524 -160.453)"/><path class="b" d="M493.407,181.661h0a2.734,2.734,0,0,1-2.761,2.761H481.26a2.734,2.734,0,0,1-2.761-2.761h0a2.734,2.734,0,0,1,2.761-2.761h9.386A2.8,2.8,0,0,1,493.407,181.661Z" transform="translate(-380.557 -162.558)"/><path class="a" d="M433.063,206.63h0a2.451,2.451,0,0,1-2.429,2.429h-11.7a2.451,2.451,0,0,1-2.429-2.429h0a2.451,2.451,0,0,1,2.429-2.429h11.7A2.378,2.378,0,0,1,433.063,206.63Z" transform="translate(-387.018 -159.922)"/><path class="a" d="M430.325,187.14h0a2.451,2.451,0,0,1-2.429,2.429H392.229a2.451,2.451,0,0,1-2.429-2.429h0a2.549,2.549,0,0,1,2.429-2.54h35.556A2.568,2.568,0,0,1,430.325,187.14Z" transform="translate(-389.8 -161.964)"/><path class="a" d="M479.1,167.13h0a2.549,2.549,0,0,1-2.429,2.54h-4.638a2.476,2.476,0,0,1-2.429-2.54h0a2.451,2.451,0,0,1,2.429-2.429h4.638A2.317,2.317,0,0,1,479.1,167.13Z" transform="translate(-381.484 -164.038)"/><path class="a" d="M436.063,176.82h0a2.549,2.549,0,0,1-2.429,2.54h-11.7a2.451,2.451,0,0,1-2.429-2.429h0a2.451,2.451,0,0,1,2.429-2.429h11.7A2.354,2.354,0,0,1,436.063,176.82Z" transform="translate(-386.705 -163.017)"/></g></g><text class="d" transform="translate(16.372 150.13)"><tspan x="0" y="0">Drea</tspan><tspan class="e" y="0">Mx</tspan></text></g></svg>