<?xml version="1.0" encoding="utf-8"?>
<!-- Generator: Adobe Illustrator 21.1.0, SVG Export Plug-In . SVG Version: 6.00 Build 0)  -->
<svg version="1.1" id="Layer_1" xmlns="http://www.w3.org/2000/svg" xmlns:xlink="http://www.w3.org/1999/xlink" x="0px" y="0px"
	 viewBox="0 0 547 188" style="enable-background:new 0 0 547 188;" xml:space="preserve">
<style type="text/css">
	.st0{fill:#5B0155;}
	.st1{fill:#FF4A0B;}
	.st2{fill:#FFFFFF;}
	.st3{fill:#020202;}
</style>
<g>
	<g>
		<circle class="st0" cx="525" cy="164.8" r="22"/>
		<path class="st0" d="M462.9,147.3h13c1.2,0,2.2,1,2.2,2.2v0.5c0,1.2-1,2.2-2.2,2.2h-58c-1.2,0-2.2,1-2.2,2.2v0.5
			c0,1.2,1,2.2,2.2,2.2h24.5c1.2,0,2.2,1,2.2,2.2v0.5c0,1.2-1,2.2-2.2,2.2h-14.5c-1.2,0-2.2,1-2.2,2.2v0.5c0,1.2,1,2.2,2.2,2.2h23.5
			c1.2,0,2.2,1,2.2,2.2v0.5c0,1.2-1,2.2-2.2,2.2h-33.5c-1.2,0-2.2,1-2.2,2.3v0.5c0,1.2,1,2.2,2.2,2.2h47c1.2,0,2.2,1,2.2,2.2v0.5
			c0,1.2-1,2.3-2.2,2.3h-22c-1.2,0-2.2,1-2.2,2.2l0,0c0,1.2,1,2.2,2.2,2.2h80c1.2,0,2.2-1,2.2-2.2v-39.5c0-1.2-1-2.2-2.2-2.2h-60
			c-1.2,0-2.2,1-2.2,2.2l0,0C460.7,146.3,461.7,147.3,462.9,147.3z"/>
		<path class="st1" d="M486.9,152.3h16.5c1.2,0,2.2,1,2.2,2.2v0c0,1.2-1,2.2-2.2,2.2h-29c-1.2,0-2.3,1-2.3,2.2v1
			c0,1.2,1,2.2,2.3,2.2h17c1.2,0,2.2,1,2.2,2.2v0.5c0,1.2-1,2.2-2.2,2.2h-27c-1.2,0-2.2,1-2.2,2.2v0.5c0,1.2,1,2.2,2.2,2.2h34.5
			c1.2,0,2.2,1,2.2,2.3v0.5c0,1.2-1,2.2-2.2,2.2h-8.5c-1.2,0-2.2,1-2.2,2.2v0.5c0,1.2,1,2.3,2.2,2.3h32.5c1.2,0,2.2-1,2.2-2.3v-30.5
			c0-1.2-1-2.2-2.2-2.2h-36c-1.2,0-2.2,1-2.2,2.2v0.5C484.7,151.3,485.7,152.3,486.9,152.3z"/>
		<circle class="st2" cx="525" cy="164.9" r="17.4"/>
		<path class="st1" d="M481.2,179.8L481.2,179.8c0,1.4-1.1,2.5-2.5,2.5h-3c-1.4,0-2.5-1.1-2.5-2.5l0,0c0-1.4,1.1-2.5,2.5-2.5h3
			C480,177.3,481.2,178.4,481.2,179.8z"/>
		<path class="st1" d="M467.2,159.6L467.2,159.6c0,1.4-1.1,2.5-2.5,2.5h-8.5c-1.4,0-2.5-1.1-2.5-2.5l0,0c0-1.4,1.1-2.5,2.5-2.5h8.5
			C466,157.1,467.2,158.2,467.2,159.6z"/>
		<path class="st0" d="M406.7,184.6L406.7,184.6c0,1.2-1,2.2-2.2,2.2h-10.6c-1.2,0-2.2-1-2.2-2.2l0,0c0-1.2,1-2.2,2.2-2.2h10.6
			C405.7,182.3,406.7,183.3,406.7,184.6z"/>
		<path class="st0" d="M401.7,165.1L401.7,165.1c0,1.2-1,2.2-2.2,2.2h-32.2c-1.2,0-2.2-1-2.2-2.2l0,0c0-1.2,1-2.3,2.2-2.3h32.2
			C400.7,162.8,401.7,163.8,401.7,165.1z"/>
		<path class="st0" d="M453.4,145.1L453.4,145.1c0,1.2-1,2.3-2.2,2.3h-4.2c-1.2,0-2.2-1-2.2-2.3l0,0c0-1.2,1-2.2,2.2-2.2h4.2
			C452.4,142.8,453.4,143.8,453.4,145.1z"/>
		<path class="st0" d="M409.7,154.8L409.7,154.8c0,1.2-1,2.3-2.2,2.3h-10.6c-1.2,0-2.2-1-2.2-2.2v0c0-1.2,1-2.2,2.2-2.2h10.6
			C408.7,152.6,409.7,153.6,409.7,154.8z"/>
	</g>
</g>
<g>
	<path class="st3" d="M0.4,114.3V1.2h39.5c13.8,0,25.2,4.4,34.2,13.2c9,8.8,13.4,20.2,13.4,34v18.7c0,13.9-4.5,25.2-13.4,34
		c-9,8.8-20.4,13.2-34.2,13.2H0.4z M23.1,18.7v78.2h16.8c7.5,0,13.5-2.8,18-8.4c4.6-5.6,6.8-12.7,6.8-21.4V48.3
		c0-8.7-2.3-15.7-6.8-21.3c-4.6-5.5-10.6-8.3-18-8.3H23.1z"/>
	<path class="st3" d="M148.2,49.8l-8.3-0.2c-3.4,0-6.1,0.7-8.3,2.1c-2.2,1.4-3.8,3.4-5,5.9v56.8H104V30.3h21.1l1,12.4
		c2-4.4,4.5-7.8,7.7-10.3c3.1-2.5,6.7-3.7,10.8-3.7c1.1,0,2.2,0.1,3.1,0.3c1,0.2,1.9,0.4,2.9,0.7L148.2,49.8z"/>
	<path class="st3" d="M195,116c-12.5,0-22.3-3.8-29.4-11.5c-7-7.7-10.6-17.6-10.6-29.7v-3.1c0-12.6,3.4-22.9,10.3-30.9
		c6.8-8,16.2-12,28.2-12c11.3,0,20,3.5,26,10.4c6,6.9,9.1,16.2,9.1,27.9v11.7h-50.1l-0.2,0.5c0.4,5.7,2.1,10.4,5.2,14
		c3.1,3.6,7.8,5.4,13.9,5.4c5.1,0,9.4-0.5,12.9-1.6c3.5-1,7.2-2.6,11-4.7l6.1,14c-3.4,2.7-7.9,5.1-13.7,6.9
		C208.1,115,201.8,116,195,116z M193.5,46.2c-4.6,0-8.1,1.6-10.5,4.7c-2.5,3.1-4,7.3-4.5,12.5l0.2,0.4h27.7V62c0-4.9-1-8.8-3-11.6
		C201.3,47.6,198,46.2,193.5,46.2z"/>
	<path class="st3" d="M291.4,114.3c-0.8-1.9-1.5-3.9-2.1-6.1s-1-4.3-1.3-6.5c-2.3,4.1-5.4,7.5-9.2,10.2c-3.8,2.7-8.4,4-13.7,4
		c-8.8,0-15.6-2.3-20.4-6.8c-4.8-4.5-7.1-10.7-7.1-18.5c0-8.2,3.2-14.6,9.5-19.2c6.3-4.5,15.6-6.8,27.8-6.8h12.7V58
		c0-4-1.1-7.2-3.2-9.4c-2.1-2.2-5.3-3.3-9.5-3.3c-3.7,0-6.5,0.9-8.5,2.7s-3,4.2-3,7.3h-21.8l-0.2-0.5c-0.4-7.1,2.7-13.2,9.3-18.4
		c6.6-5.2,15.1-7.7,25.7-7.7c10.1,0,18.3,2.5,24.5,7.6c6.2,5.1,9.4,12.4,9.4,21.8v34.7c0,3.9,0.3,7.6,0.9,11.1
		c0.6,3.5,1.5,6.9,2.8,10.3H291.4z M270.6,99.2c3.9,0,7.5-1,10.6-3c3.1-2,5.2-4.2,6.4-6.8V77.5h-12.7c-4.8,0-8.5,1.2-10.9,3.6
		c-2.5,2.4-3.7,5.3-3.7,8.8c0,2.8,0.9,5.1,2.8,6.8C264.8,98.3,267.3,99.2,270.6,99.2z"/>
	<path class="st3" d="M387,107.6h0.5L434.7,1.2h4.7v113.1h-4.2V11.5l-0.5-0.1l-45.8,102.9h-3.3L338.7,9.2l-0.5,0.1v105.1h-4.2V1.2
		h5.8L387,107.6z"/>
	<path class="st3" d="M493,67.5l26.8-37.3h5.3l-29.5,40.9l31.1,43.1h-5.2l-28.5-39.5l-28.4,39.5h-5.2l31.1-43.1l-29.5-40.9h5.3
		L493,67.5z"/>
</g>
</svg>
