<svg xmlns="http://www.w3.org/2000/svg" viewBox="1094.3 1961.3 166.323 94.751"><defs><style>.a,.b,.c{fill:none;stroke:#000;stroke-miterlimit:10;}.b{stroke-width:0.75px;}.c{stroke-width:2px;}</style></defs><g transform="translate(-933.2 579)"><g transform="translate(2028 1382.3)"><g transform="translate(0 0)"><g transform="translate(0 4.688)"><rect class="a" width="42.188" height="62.989"/><g transform="translate(7.324 6.738)"><rect class="a" width="27.832" height="9.961"/><rect class="a" width="20.215" height="7.324" transform="translate(3.809 42.481)"/><line class="a" x2="15.821" transform="translate(5.859 16.699)"/><line class="a" x2="27.832" transform="translate(0 23.145)"/><line class="a" x2="15.821" transform="translate(5.859 29.59)"/><line class="a" x2="27.832" transform="translate(0 36.036)"/></g></g><path class="b" d="M24.1,41.506l21.973-8.2L24.1,25.1v7.031L29.374,33.3,24.1,34.475Z" transform="translate(34.202 3.025)"/><g transform="translate(93.165)"><path d="M72.329,18.43a33.4,33.4,0,1,1-33.4,33.4c.293-18.457,15.235-33.4,33.4-33.4m0-2.93a36.329,36.329,0,1,0,36.329,36.329A36.322,36.322,0,0,0,72.329,15.5Z" transform="translate(-36 -15.5)"/><path d="M50.34,42.036s-8.5-11.719-10.84-18.75l4.395-.586L47.7,25.044l6.152.586,1.172-1.465,3.223.586,3.809,5.274,3.516-1.172,2.637,3.223L70.848,35.3l2.344,1.758s-1.172,21.68,12.891,9.375l2.051-2.051,4.1-.586V47.6l-1.172,2.637-.586,2.637-.293,2.051-3.516,3.516-4.981-1.465s-2.93-4.1-6.445-.586c0,0-16.113-4.981-18.164-8.2a4.348,4.348,0,0,0,.586-4.688s-3.809-5.273-6.152-6.445c0,0-5.274-7.324-5.274-11.133l-3.223-.586,2.344,4.688L47.117,35.3l1.758,2.344.586,2.637,2.344.879-.879,1.172Z" transform="translate(-29.246 -1.606)"/></g></g><line class="c" x2="66.798" transform="translate(48.047 93.751)"/></g></g></svg>