<svg xmlns="http://www.w3.org/2000/svg" viewBox="1093.3 1334.5 168.822 166.712"><defs><style>.a,.b,.c,.d{fill:none;stroke:#000;stroke-miterlimit:10;}.a{stroke-width:3px;}.b,.d{stroke-width:2px;}.d{fill-rule:evenodd;}</style></defs><g transform="translate(0 1191)"><path class="a" d="M120.5,4.756H6.2V-130.8H172.022v46.154" transform="translate(1088.6 275.8)"/><path class="a" d="M84.016-105.3v53.45H45.7" transform="translate(1176.284 332.406)"/><line class="a" x2="165.822" transform="translate(1094.8 179.453)"/><line class="b" x2="47.654" transform="translate(1113.154 240.308)"/><line class="b" x2="47.654" transform="translate(1113.154 256.085)"/><rect class="b" width="39.282" height="26.725" transform="translate(1117.339 197.806)"/><line class="b" x2="55.059" transform="translate(1188.176 241.918)"/><line class="c" y2="23.827" transform="translate(1200.411 218.091)"/><line class="c" y2="23.827" transform="translate(1215.867 218.091)"/><line class="c" y2="23.827" transform="translate(1231.322 218.091)"/><path class="d" d="M77.8-58.836H49.467A14.085,14.085,0,0,1,35.3-73v-35.1H92.291V-73A14.569,14.569,0,0,1,77.8-58.836Z" transform="translate(1153.198 326.191)"/><path class="d" d="M49.628-50.942h-1.61A6.114,6.114,0,0,1,41.9-57.06V-92.8H55.745v35.74A5.92,5.92,0,0,1,49.628-50.942Z" transform="translate(1167.849 360.154)"/></g></svg>