<svg xmlns="http://www.w3.org/2000/svg" viewBox="1094.3 1634.7 166.823 115.8"><defs><style>.a,.c{fill-rule:evenodd;}.b,.c,.d{fill:none;stroke:#000;stroke-miterlimit:10;}.d{stroke-width:2px;}</style></defs><g transform="translate(-937 324)"><g transform="translate(2031.8 1311.2)"><g transform="translate(69.983 0)"><circle cx="8.274" cy="8.274" r="8.274" transform="translate(4.482)"/><path class="a" d="M53.811-31.239c0-10.342-5.861-18.961-12.756-18.961S28.3-41.926,28.3-31.239" transform="translate(-28.3 68.816)"/></g><g transform="translate(140.311 0)"><circle class="b" cx="8.274" cy="8.274" r="8.274" transform="translate(4.482)"/><path class="c" d="M74.211-31.239c0-10.342-5.861-18.961-12.756-18.961-7.24,0-12.756,8.274-12.756,18.961Z" transform="translate(-48.7 68.816)"/></g><g transform="translate(0 0)"><circle class="b" cx="8.274" cy="8.274" r="8.274" transform="translate(4.137)"/><path class="c" d="M33.511-31.239c0-10.342-5.861-18.961-12.756-18.961S8-41.926,8-31.239Z" transform="translate(-8 68.816)"/></g><g transform="translate(69.983 77.223)"><circle class="b" cx="8.274" cy="8.274" r="8.274" transform="translate(4.482)"/><path class="c" d="M53.811-8.839c0-10.342-5.861-18.961-12.756-18.961S28.3-19.526,28.3-8.839Z" transform="translate(-28.3 46.416)"/></g><line class="d" y2="22.408" transform="translate(82.739 46.196)"/><line class="d" x2="25.856" transform="translate(104.803 18.961)"/><line class="d" x2="25.856" transform="translate(34.819 18.961)"/></g></g></svg>